#!OML:ASF F:\VICON\USERDATA\INSTALL\rory3\rory3.ASF
:FULLY-SPECIFIED
:DEGREES
187
root 0.242949 18.7035 -0.699777 -4.11838 1.61154 -0.817043
lowerback 10.5375 0.780978 -2.74698
upperback 2.33727 0.819074 1.99246
thorax -3.5369 0.436576 3.51638
lowerneck -11.9228 -4.14626 -9.69623
upperneck 29.5922 -5.7163 6.99542
head 12.201 -2.78301 3.52189
rclavicle -7.87684e-015 -9.93923e-015
rhumerus -57.9007 16.3922 -77.4458
rradius 57.6317
rwrist -1.72989
rhand -7.06726 14.6164
rfingers 7.12502
rthumb 18.8061 -14.4945
lclavicle -7.87684e-015 -9.93923e-015
lhumerus -58.7158 -0.517366 67.4159
lradius 53.3106
lwrist 7.02832
lhand -22.8985 20.9098
lfingers 7.12502
lthumb 3.54111 50.8601
rfemur -20.6505 -0.834043 22.1223
rtibia 25.2199
rfoot 24.4528 -2.55526
rtoes 3.08139
lfemur -19.2741 -5.06142 -19.64
ltibia 23.0978
lfoot 15.5528 -2.80994
ltoes -13.8364
188
root 0.226661 18.3865 -0.529286 -4.87386 1.46158 -1.48853
lowerback 10.8346 0.84165 -2.29446
upperback 2.59777 0.949912 2.16325
thorax -3.43607 0.492932 3.41962
lowerneck -12.2282 -4.20741 -9.68504
upperneck 29.1064 -5.79717 7.13736
head 12.0822 -2.79182 3.54654
rclavicle -1.13307e-014 7.55382e-015
rhumerus -57.5244 16.2358 -77.5953
rradius 57.6482
rwrist -1.52106
rhand -7.04609 15.0353
rfingers 7.12502
rthumb 18.8265 -14.0736
lclavicle -1.13307e-014 7.55382e-015
lhumerus -58.2997 -0.131511 67.6901
lradius 52.9443
lwrist 7.30968
lhand -22.7963 20.4902
lfingers 7.12502
lthumb 3.63985 50.4389
rfemur -20.5407 -0.792147 22.9223
rtibia 26.7457
rfoot 22.9934 -1.97025
rtoes 4.96334
lfemur -19.6169 -4.65501 -18.8922
ltibia 25.0778
lfoot 15.2725 -3.40961
ltoes -10.4015
189
root 0.2113 18.0452 -0.368434 -5.65477 1.41161 -1.92785
lowerback 11.1754 0.895095 -2.0471
upperback 2.83148 1.04601 2.25119
thorax -3.3849 0.535245 3.35654
lowerneck -12.388 -4.22546 -9.76975
upperneck 28.5324 -5.86349 7.49324
head 11.9081 -2.78182 3.67135
rclavicle -3.42904e-015 -1.31198e-014
rhumerus -57.2623 16.0419 -77.8526
rradius 57.7413
rwrist -1.11947
rhand -7.32545 14.9645
rfingers 7.12502
rthumb 18.5578 -14.1703
lclavicle -3.42904e-015 -1.31198e-014
lhumerus -57.903 0.195021 68.0061
lradius 52.6085
lwrist 7.48605
lhand -22.7372 20.7776
lfingers 7.12502
lthumb 3.69689 50.7253
rfemur -20.4441 -1.00351 23.5232
rtibia 29.1716
rfoot 16.1583 0.682766
rtoes 16.8594
lfemur -20.1683 -4.41139 -18.4652
ltibia 27.7258
lfoot 14.2522 -4.1477
ltoes -1.23937
190
root 0.197608 17.6996 -0.224148 -6.42681 1.6606 -2.1751
lowerback 11.7975 0.840005 -1.96483
upperback 2.83676 0.977215 2.28148
thorax -3.71556 0.505136 3.34829
lowerneck -12.1149 -4.20666 -9.89778
upperneck 27.9512 -5.89632 7.82296
head 11.642 -2.77484 3.80205
rclavicle 3.23025e-016 -4.96962e-015
rhumerus -57.4355 15.8808 -78.218
rradius 58.0157
rwrist -0.67363
rhand -7.38884 14.5077
rfingers 7.12502
rthumb 18.4968 -14.6329
lclavicle 3.23025e-016 -4.96962e-015
lhumerus -58.0482 0.379188 68.4207
lradius 52.6019
lwrist 7.84697
lhand -22.8008 20.7981
lfingers 7.12502
lthumb 3.63548 50.7469
rfemur -20.3005 -1.67307 23.9944
rtibia 32.2607
rfoot 7.32066 3.22244
rtoes 13.1259
lfemur -20.9761 -4.34777 -18.3807
ltibia 31.1599
lfoot 6.49949 -5.18136
ltoes -9.90483
